<svg width="24" height="24" viewBox="0 0 24 24" fill="none" xmlns="http://www.w3.org/2000/svg">
<g clip-path="url(#clip0_34_35)">
<path d="M1 1V0C0.447715 0 0 0.447715 0 1L1 1ZM23 1H24C24 0.447715 23.5523 0 23 0V1ZM1 5H0V5.41421L0.292893 5.70711L1 5ZM23 5L23.7071 5.70711L24 5.41421V5H23ZM10 14H11V13.5858L10.7071 13.2929L10 14ZM10 19H9V19.5L9.4 19.8L10 19ZM14 22L13.4 22.8L15 24V22H14ZM14 14L13.2929 13.2929L13 13.5858V14H14ZM1 1V2H23V1V0H1V1ZM1 5H2V1H1H0V5H1ZM23 1H22V5H23H24V1H23ZM10 14L10.7071 13.2929L1.70711 4.29289L1 5L0.292893 5.70711L9.29289 14.7071L10 14ZM10 19H11V14H10H9V19H10ZM14 22H15V14H14H13V22H14ZM14 14L14.7071 14.7071L23.7071 5.70711L23 5L22.2929 4.29289L13.2929 13.2929L14 14ZM14 22L14.6 21.2L10.6 18.2L10 19L9.4 19.8L13.4 22.8L14 22Z" fill="black"/>
</g>
<defs>
<clipPath id="clip0_34_35">
<rect width="24" height="24" fill="white"/>
</clipPath>
</defs>
</svg>
